# xmcd
#
# Track frame offsets: 
#        150
#        13741
#        41788
#        54616
#        67038
#        79275
#        92051
#        107265
#        119486
#        132835
#        146882
#        160361
#        171763
#        184052
#        197547
#        210497
#        224274
#        235599
#        248604
#        259127
#        270406
#        284370
#        296572
#        309855
#        323322
#        334617
#
# Disc length: 4613 seconds
#
# Revision: 2
# Processed by: cddbd v1.5.2PL0 Copyright (c) Steve Scherf et al.
# Submitted via: ExactAudioCopyFreeDBPlugin 1.0
#
DISCID=7712031a
DTITLE=Various Artist - Jamaica Selects Jump Blues Strictly For You: 
DTITLE=Jamaican Sound System Classics, 1944-1960
DYEAR=2012
DGENRE=Rhythm and Blues
TTITLE0=Louis Jordan - GI Jive
TTITLE1=Joe Liggins - The Honeydripper (Parts 1 and 2)
TTITLE2=Roy Milton - Milton's Boogie
TTITLE3=Sherman Williams - Baby Don't You Want to Go
TTITLE4=Joe Liggins - TWA
TTITLE5=Sherman Williams - Sherman's Boogie
TTITLE6=Louis Jordan - Run Joe
TTITLE7=Felix Gross - Worried About You Baby
TTITLE8=Hal Singer Sextette - Corn Bread
TTITLE9=Paul Williams - The Huckle-Buck
TTITLE10=Dave Bartholomew - Country Boy
TTITLE11=Roy Byrd - Bald Head
TTITLE12=Lowell Fulson - Rocking After Midnight (ft Lloyd Glenn)
TTITLE13=Jimmy Liggins - Saturday Nite Boogie Woogie Man
TTITLE14=Amos Milburn - Sax Shack Boogie
TTITLE15=Teddy Brannon Orchestra - Don Newcomb Really Throws That Ball
TTITLE16=Calvin Boze - Waiting and Drinking
TTITLE17=Roy Brown - New Rebecca
TTITLE18=Erline Harris - Jump and Shout
TTITLE19=T-Bone Walker - Strollin' with Bones
TTITLE20=Willis Jackson - Call of the Gators
TTITLE21=Gene Phillips - Slippin' and Slidin'
TTITLE22=Joe Thomas - Raw Meat
TTITLE23=Amos Milburn - Bad, Bad Whiskey
TTITLE24=Peppermint Harris - I Got Loaded
TTITLE25=Lynn Hope - Blue Moon
EXTD=
EXTT0=
EXTT1=
EXTT2=
EXTT3=
EXTT4=
EXTT5=
EXTT6=
EXTT7=
EXTT8=
EXTT9=
EXTT10=
EXTT11=
EXTT12=
EXTT13=
EXTT14=
EXTT15=
EXTT16=
EXTT17=
EXTT18=
EXTT19=
EXTT20=
EXTT21=
EXTT22=
EXTT23=
EXTT24=
EXTT25=
PLAYORDER=
